<svg width="430" height="430" viewBox="0 0 430 430" fill="none" xmlns="http://www.w3.org/2000/svg">
<g clip-path="url(#clip0_32_20)">
<path d="M334 0H96C42.9807 0 0 42.9807 0 96V334C0 387.019 42.9807 430 96 430H334C387.019 430 430 387.019 430 334V96C430 42.9807 387.019 0 334 0Z" fill="#00006F"/>
<path d="M333.993 269.194V304.421C334.006 307.69 333.309 310.928 331.946 313.924C330.583 316.92 328.584 319.61 326.076 321.821C323.569 324.032 320.608 325.715 317.385 326.763C314.161 327.81 310.747 328.199 307.357 327.905C269.761 323.978 233.646 311.632 201.916 291.856C172.395 273.828 147.368 249.775 128.609 221.404C107.96 190.77 95.1097 155.894 91.0992 119.599C90.7939 116.352 91.1951 113.079 92.2779 109.99C93.3608 106.9 95.1012 104.061 97.3884 101.653C99.6756 99.2442 102.459 97.3209 105.563 96.0035C108.666 94.686 112.021 94.0043 115.413 94.0011H152.067C157.997 93.9456 163.744 95.9629 168.241 99.6791C172.737 103.394 175.673 108.555 176.503 114.198C178.049 125.471 180.919 136.54 185.055 147.193C186.699 151.396 187.055 155.963 186.08 160.355C185.106 164.746 182.842 168.776 179.558 171.969L164.041 186.882C181.433 216.278 206.76 240.619 237.348 257.334L252.865 242.422C256.187 239.265 260.381 237.089 264.95 236.152C269.52 235.216 274.272 235.558 278.645 237.137C289.73 241.113 301.247 243.87 312.977 245.357C318.913 246.162 324.333 249.035 328.207 253.43C332.083 257.825 334.141 263.435 333.993 269.194Z" stroke="#CCCCCC" stroke-width="23" stroke-linecap="round" stroke-linejoin="round"/>
</g>
<defs>
<clipPath id="clip0_32_20">
<rect width="430" height="430" fill="white"/>
</clipPath>
</defs>
</svg>
