<svg width="56" height="56" viewBox="0 0 56 56" fill="none" xmlns="http://www.w3.org/2000/svg">
<path d="M41.4322 14L38.9331 41.9967L27.6993 45.1111L16.4965 42.0011L14 14H41.4322Z" fill="#264DE4"/>
<path d="M36.7935 40.214L38.9292 16.2895H27.7161V42.7306L36.7935 40.214Z" fill="#2965F1"/>
<path d="M19.7231 26.6747L20.0309 30.1089H27.7161V26.6747H19.7231Z" fill="#EBEBEB"/>
<path d="M27.7161 19.7237H27.7043H19.1047L19.4169 23.158H27.7161V19.7237Z" fill="#EBEBEB"/>
<path d="M27.7161 39.1667V35.5937L27.7011 35.5977L23.8764 34.5649L23.6319 31.826H21.7734H20.1844L20.6656 37.2182L27.7003 39.1711L27.7161 39.1667Z" fill="#EBEBEB"/>
<path d="M31.9331 30.1089L31.5345 34.5628L27.7042 35.5966V39.1695L34.7446 37.2183L34.7962 36.6381L35.6032 27.5969L35.687 26.6747L36.307 19.7237H27.7042V23.158H32.5434L32.2309 26.6747H27.7042V30.1089H31.9331Z" fill="white"/>
</svg>
