<svg width="56" height="56" viewBox="0 0 56 56" fill="none" xmlns="http://www.w3.org/2000/svg">
<path d="M26.2032 43.9294C25.7275 43.8726 25.2285 43.7994 25.0948 43.7664C24.8979 43.7197 24.6999 43.678 24.501 43.6414C24.2738 43.5973 24.0484 43.5445 23.8252 43.4831C22.789 43.1861 22.7148 43.1619 21.9335 42.8424C21.2148 42.5494 19.8905 41.8649 19.4375 41.5534C19.3135 41.4674 19.1975 41.3981 19.1797 41.3981C19.1623 41.3981 18.8723 41.1941 18.5353 40.9449C16.3928 39.3591 14.7843 37.4341 13.622 35.0631C13.422 34.6559 13.2587 34.2946 13.2587 34.2606C13.2587 34.2271 13.2228 34.1344 13.1788 34.0564C13.088 33.8941 12.9588 33.5446 12.8545 33.1834C12.8097 33.0299 12.7575 32.8786 12.6982 32.7301C12.6495 32.6151 12.6102 32.4751 12.6102 32.4186C12.6102 32.3619 12.5615 32.1774 12.502 32.0074C12.4425 31.8386 12.3945 31.6394 12.3945 31.5649C12.3945 31.4909 12.3478 31.2349 12.29 30.9959C12.1495 30.4059 12 28.8776 12 28.0211C12 27.1656 12.1495 25.6374 12.29 25.0476C12.3475 24.8084 12.3945 24.5476 12.3945 24.4676C12.3945 24.3874 12.4308 24.2301 12.4745 24.1176C12.5195 24.0056 12.577 23.8044 12.6035 23.6706C12.631 23.5369 12.6935 23.3064 12.7442 23.1569L12.8917 22.7254C13 22.4021 13.1005 22.1286 13.1485 22.0221C13.176 21.9626 13.2832 21.7196 13.3878 21.4821C13.5568 21.0984 13.919 20.3746 14.1307 19.9959C14.208 19.8571 14.2373 19.8111 14.6553 19.1579C15.3175 18.1209 16.4492 16.8306 17.5027 15.9109C17.874 15.5866 19.1143 14.6451 19.17 14.6451C19.1855 14.6451 19.3025 14.5749 19.4307 14.4889C19.7675 14.2634 20.0977 14.0719 20.5282 13.8561C20.6828 13.7797 20.8358 13.7003 20.9873 13.6179C21.0585 13.5769 21.1922 13.5154 21.879 13.2079C22.0302 13.1404 22.1932 13.0789 22.663 12.9146C22.7665 12.8786 22.9745 12.8024 23.123 12.7466C23.2725 12.6911 23.4482 12.6451 23.5138 12.6451C23.5782 12.6451 23.748 12.6001 23.8907 12.5446C24.0332 12.4889 24.292 12.4254 24.4668 12.4039C24.6407 12.3834 24.872 12.3346 24.9805 12.2964C25.088 12.2594 25.383 12.2114 25.6357 12.1901C25.9652 12.1604 26.2937 12.1216 26.621 12.0739C27.293 11.9754 28.754 11.9754 29.419 12.0739C29.7331 12.1189 30.0483 12.156 30.3643 12.1851C30.6025 12.2049 30.9062 12.2546 31.04 12.2956C31.1738 12.3356 31.4052 12.3856 31.5537 12.4039C31.7022 12.4236 31.9522 12.4851 32.1092 12.5416C32.2667 12.5991 32.4452 12.6451 32.5068 12.6451C32.5683 12.6451 32.6952 12.6794 32.788 12.7224C32.8818 12.7644 33.08 12.8346 33.2295 12.8786C33.378 12.9236 33.6328 13.0124 33.797 13.0779C33.96 13.1431 34.1788 13.2291 34.2833 13.2681C34.4757 13.3406 35.8982 14.0524 36.0917 14.1736C37.662 15.1529 38.4697 15.7926 39.5557 16.9146C40.8652 18.2681 41.7345 19.5571 42.6192 21.4546C42.6817 21.5886 42.7773 21.7869 42.832 21.8941C42.8857 22.0026 42.9307 22.1296 42.9307 22.1766C42.9307 22.2241 42.9757 22.3666 43.0312 22.4939C43.1817 22.8396 43.3105 23.2331 43.3713 23.5339C43.4013 23.6814 43.457 23.8639 43.495 23.9391C43.5333 24.0141 43.578 24.2049 43.5958 24.3611C43.6133 24.5171 43.665 24.7731 43.709 24.9284C43.964 25.8111 44.0908 28.4119 43.9365 29.5621C43.8908 29.9039 43.839 30.3171 43.8215 30.4801C43.792 30.7594 43.6445 31.4811 43.5185 31.9664L43.3885 32.4801C43.1435 33.4694 42.538 34.8786 41.7987 36.1824C41.5058 36.6999 40.5235 38.0994 40.338 38.2634C40.3212 38.2779 40.2382 38.3759 40.1542 38.4791C40.0702 38.5836 39.8007 38.8756 39.5567 39.1276C38.4815 40.2379 37.6143 40.9244 36.0917 41.8699C35.9112 41.9821 34.38 42.7301 34.0938 42.8464C33.9452 42.9059 33.6972 43.0064 33.543 43.0689C33.3897 43.1306 33.2188 43.1824 33.165 43.1834C33.1113 43.1841 32.9697 43.2321 32.8505 43.2896C32.7315 43.3471 32.58 43.3951 32.5128 43.3961C32.4463 43.3971 32.252 43.4441 32.081 43.5006C31.9102 43.5581 31.6727 43.6199 31.5535 43.6381C31.4345 43.6569 31.1798 43.7076 30.9862 43.7506C30.793 43.7936 30.2088 43.8776 29.6895 43.9371C28.5312 44.0722 27.3609 44.0696 26.2032 43.9294ZM27.379 40.8044C27.454 40.7459 27.5312 40.6294 27.5518 40.5476C27.5968 40.3669 34.8603 25.8051 34.997 25.6226C35.1122 25.4684 35.123 25.2214 35.0175 25.1344C34.962 25.0876 34.2665 25.0729 32.41 25.0759C31.0175 25.0789 29.8468 25.0799 29.8085 25.0789C29.752 25.0769 29.7402 24.1464 29.746 20.1609C29.75 17.4566 29.7373 15.2194 29.7178 15.1884C29.6982 15.1569 29.622 15.1316 29.5478 15.1316C29.4433 15.1316 29.3945 15.1766 29.3302 15.3336C29.209 15.6256 28.874 16.2886 27.2432 19.4549C26.9045 20.112 26.5666 20.7695 26.2295 21.4274C25.9405 21.9929 25.4845 22.8806 25.2177 23.3999C24.4997 24.7957 23.7832 26.1923 23.0682 27.5896C21.835 29.9986 21.6858 30.2859 21.6327 30.3494C21.5302 30.4734 21.4745 30.7594 21.5323 30.8669C21.5848 30.9654 21.6895 30.9694 24.293 30.9654C25.7812 30.9636 27.0087 30.9714 27.0215 30.9829C27.0557 31.0181 27.043 40.3104 27.0077 40.5319C26.9845 40.6774 27 40.7544 27.0665 40.8209C27.1815 40.9361 27.213 40.9351 27.379 40.8044Z" fill="#049688"/>
</svg>
