<svg width="56" height="56" viewBox="0 0 56 56" fill="" xmlns="http://www.w3.org/2000/svg">
<path d="M23.2637 37.0422C22.0828 36.1353 20.8231 35.2657 19.9623 34.0415C18.1509 31.8823 16.7562 29.3826 15.8027 26.7555C15.2265 25.0474 15.0291 23.216 14.2862 21.5738C13.5091 20.3811 14.4194 19.0772 15.7576 18.6982C16.3532 18.5865 17.4008 18.0379 16.1364 18.4299C15.0028 19.2422 14.893 17.6929 16.0553 17.5947C16.8488 17.4918 17.1409 16.8577 16.8694 16.2869C16.018 15.7446 18.9346 15.1488 17.467 14.3397C15.9382 12.7295 19.6055 12.4195 18.7006 14.2482C18.4841 15.6545 21.2632 13.9905 20.6184 15.6146C21.2736 16.3944 23.0725 15.792 23.0279 16.886C23.9826 16.9502 24.3104 17.7345 25.2065 17.7947C26.1354 18.2043 27.819 18.527 28.1353 19.549C27.2137 20.2612 25.0798 18.0775 24.9774 20.0494C25.2556 22.962 25.1848 25.9624 26.2763 28.7361C26.7925 30.4157 28.044 31.7378 29.1743 33.0459C30.256 34.327 31.7208 35.2288 33.2139 35.9882C34.5236 36.5914 35.9356 36.9914 37.363 37.2422C37.9419 36.8099 38.9641 35.2025 39.8674 35.8804C39.9102 36.6419 38.0748 37.4724 39.7809 37.3882C40.7828 37.0932 41.4779 38.1447 42.3028 37.1961C43.0629 38.0753 45.4622 36.6345 44.9214 38.4314C44.19 38.8922 43.1234 38.6136 42.3909 39.2474C41.1832 38.6585 40.2216 39.7744 38.8845 39.6333C37.3997 39.893 35.8891 39.9978 34.3835 40C31.9138 39.8095 29.3918 39.7293 27.0421 38.8896C25.7188 38.5142 24.427 37.7783 23.2637 37.0422ZM25.3495 37.9246C26.642 38.4702 27.9058 39.0454 29.3222 39.2188C31.5694 39.5241 33.8898 39.9933 36.1451 39.5652C35.1244 39.1152 34.0692 39.7405 33.0524 39.2435C31.8329 39.4997 30.5242 39.1783 29.2842 39.0199C27.8743 38.4067 26.3529 37.9851 25.0325 37.1893C23.3828 36.6009 25.8858 37.9437 26.3313 38.0525C27.3627 38.6241 25.1973 37.7596 24.8919 37.5219C24.0282 37.0488 23.9181 37.1476 24.8064 37.628C24.9853 37.7303 25.1619 37.8375 25.3495 37.9246ZM22.8902 36.2277C24.1427 36.6806 22.8847 35.368 22.311 35.444C22.0567 35.0133 21.3396 34.7413 21.8454 34.51C20.9353 34.8184 20.892 33.3371 20.4644 33.5488C19.5016 33.2519 20.0898 32.2006 18.9429 31.5549C18.8381 30.8745 17.8035 30.2844 17.4736 29.2583C17.3277 28.7328 16.3044 27.224 16.9331 28.6281C17.4683 29.98 18.4098 31.1377 19.1934 32.2938C19.8019 33.3947 20.5205 34.5453 21.6286 35.2321C22.0022 35.5821 22.3629 36.118 22.8902 36.2277ZM19.2825 32.3603C19.3263 32.1755 19.5115 32.7599 19.2825 32.3603V32.3603ZM24.3901 36.7707C23.9914 36.6179 24.6675 36.6494 24.3901 36.7707V36.7707ZM25.07 37.0129C24.7597 37.1997 24.9996 36.6785 25.07 37.0129V37.0129ZM25.921 37.3593C25.2967 37.1218 26.3261 36.9827 25.921 37.3593V37.3593ZM27.3796 38.1531C26.5916 38.0189 27.6257 37.7978 27.3796 38.1531V38.1531ZM24.5789 36.2467C23.766 36.2414 25.2081 35.8493 24.5789 36.2467V36.2467ZM25.2172 36.5575C24.9897 36.6518 25.1994 36.3474 25.2172 36.5575V36.5575ZM28.4077 38.5019C28.9207 38.8181 31.403 39.1946 29.8486 38.6315C29.5885 38.6851 26.9665 37.9075 28.4077 38.5019ZM23.3425 34.6503C22.5463 34.4175 23.2927 34.4397 23.3425 34.6503V34.6503ZM24.828 35.4955C24.0256 35.2925 25.2144 35.2323 24.828 35.4955V35.4955ZM26.0773 36.2434C25.1773 36.0384 26.632 36.0392 26.0773 36.2434V36.2434ZM22.7383 34.0078C23.3399 34.4582 25.1655 34.0654 23.6599 33.7386C22.9746 33.382 21.4302 33.1379 22.4829 33.9536L22.7381 34.0076L22.7383 34.0078ZM26.9235 36.5017C25.8722 36.2635 27.1743 36.0846 26.9235 36.5017V36.5017ZM25.6517 35.5149C27.1235 35.9214 24.4141 34.6061 25.2886 35.3653L25.4824 35.4508L25.6517 35.5149ZM28.2016 36.9537C26.9427 36.7661 29.5954 36.9667 28.2016 36.9537V36.9537ZM22.2018 33.2202C21.858 33.2416 22.1473 32.9669 22.2018 33.2202V33.2202ZM30.5594 38.245C30.1045 38.5856 30.5965 37.7872 30.5594 38.245V38.245ZM24.5804 34.6424C24.1449 34.6324 24.496 34.4012 24.5804 34.6424V34.6424ZM22.334 33.0611C21.2386 32.7169 23.1343 33.0142 22.334 33.0611V33.0611ZM19.6728 31.3817C18.8021 30.7084 19.5732 31.0072 19.6728 31.3817V31.3817ZM26.659 35.7105C26.5124 35.5472 26.5901 35.7461 26.659 35.7105V35.7105ZM31.0074 38.3157C30.7707 38.41 30.9935 38.0663 31.0074 38.3157V38.3157ZM26.2742 35.3224C25.5918 35.2252 26.3526 35.001 26.2742 35.3224V35.3224ZM23.0347 33.3179C22.0812 32.9249 23.6299 33.2557 23.0347 33.3179V33.3179ZM28.5146 36.6424C27.6105 36.4673 29.4422 36.2836 28.5146 36.6424V36.6424ZM25.6641 34.7533C26.7333 34.8879 24.3921 34.0432 25.4296 34.6777L25.6641 34.7533ZM29.3801 36.9841C30.3782 36.4014 30.0492 38.3484 31.0736 37.1488C32.0839 36.4283 30.201 38.0392 31.4463 37.277C32.347 36.689 33.6772 37.5558 34.5176 37.8386C35.1218 37.8096 35.7095 38.3489 36.329 38.0208C37.5216 37.7074 33.9967 37.5557 34.9207 36.9993C33.8293 37.3093 33.0234 36.6296 32.4863 35.9472C31.2622 35.6712 29.8468 35.0602 29.2359 34.0025C28.9868 33.6054 29.5959 34.0584 29.0209 33.4093C28.2833 32.7688 27.9149 32.0418 27.4199 31.2631C26.8284 30.955 26.7594 30.0482 26.6996 31.2327C26.7045 30.4852 25.9854 29.9819 25.8101 30.1912C25.8069 29.4711 26.5793 29.8321 26.0386 29.2993C25.9222 28.5531 25.5391 27.7755 25.4238 26.933C25.2448 26.5269 25.3985 25.657 24.8129 26.5764C24.5997 27.5481 24.7422 25.3825 25.074 26.0967C25.5094 25.3679 24.9175 25.4536 24.8934 25.5547C25.1771 24.9399 25.0729 24.0677 24.8192 24.4005C24.9705 23.7488 25.0581 22.0021 24.593 22.3116C24.875 21.6301 25.1277 19.1934 23.9038 20.1225C23.4079 20.1293 22.549 20.2983 22.1431 20.4954C23.4162 21.1805 22.015 20.7429 21.4969 20.6339C21.4294 21.2679 20.9162 20.9937 20.2749 20.9998C21.299 21.1236 19.7763 22.0227 19.1887 21.6734C18.4257 22.0295 19.8471 22.9182 19.204 23.1929C19.283 23.6072 18.0351 23.0434 18.133 24.0001C17.3922 23.6959 18.031 25.135 18.4016 24.6483C19.6616 24.9812 19.2886 25.7401 19.3206 26.4612C19.1154 26.8812 18.307 25.4737 19.1406 25.5389C18.4831 24.496 18.4132 25.1619 17.8669 25.6464C17.7398 25.6816 19.2606 26.3358 18.3062 26.6593C19.1459 26.7858 19.1698 27.5032 19.3409 27.9571C19.8454 28.4703 19.7422 27.3903 20.346 28.0071C19.9639 27.4577 18.3219 26.459 19.6438 26.7793C19.6368 26.2262 19.4047 25.7802 19.8098 25.7911C20.2109 25.0818 19.3898 27.5397 20.2939 26.6382C20.5441 26.5316 20.6061 25.9282 21.0561 26.6952C21.7093 27.3228 21.2921 27.7777 20.3703 27.203C20.5352 27.7492 21.6033 27.9443 21.4025 28.7985C21.6154 29.5496 21.913 29.273 22.1725 29.2295C22.3762 29.9594 22.4916 29.4226 22.5014 29.0754C23.4333 29.2701 23.2151 29.8082 23.5068 30.1839C24.149 30.467 22.5873 28.2654 23.6901 29.5221C24.8502 30.5446 24.1252 30.9714 23.084 30.8077C23.7429 30.7555 23.9555 31.6773 24.7797 31.645C25.5313 31.9939 26.0401 33.3349 24.7446 32.7766C24.2954 32.3811 22.7052 31.8931 24.004 32.6455C25.2034 33.1878 26.156 33.5123 27.3129 34.193C28.1409 34.7701 28.4985 35.4312 28.8123 35.5618C28.1166 35.8864 26.7155 35.3028 27.7558 35.1238C27.107 35.0084 26.377 34.6881 26.9985 35.4776C27.5271 35.9082 28.8712 35.8628 29.1122 35.9114C28.9078 36.3509 28.5574 36.3858 29.1204 36.42C28.4922 36.7468 29.3219 36.7974 29.3801 36.9841ZM28.0955 33.4422C27.7133 33.0521 27.6145 32.321 28.0276 32.9571C28.2395 33.0402 28.7064 34.1515 28.0955 33.4422ZM32.279 36.0368C32.286 36.2136 32.5174 36.0217 32.279 36.0368V36.0368ZM27.4919 32.4854C27.4774 31.8955 27.6303 32.9404 27.4919 32.4854V32.4854ZM27.0763 31.9392C26.5955 31.0322 27.6823 32.196 27.0763 31.9392V31.9392ZM22.0374 28.5437C22.1764 29.0154 22.3197 28.4703 22.0374 28.5437V28.5437ZM26.0475 30.666C26.221 30.03 26.2514 31.1996 26.0475 30.666V30.666ZM23.2144 28.7426C23.0148 28.3917 23.6322 29.0718 23.2144 28.7426V28.7426ZM25.6458 29.5037C25.1904 28.5073 25.9682 28.9595 25.7465 29.6668L25.6458 29.5037ZM21.4529 26.7736C21.2493 26.4466 20.9124 25.4876 21.0209 25.195C21.119 25.6716 22.0595 27.2468 21.4823 25.8473C20.8443 24.6742 22.2447 26.2281 22.3888 26.5207C22.4558 26.8119 21.9952 26.4412 22.3072 27.1236C21.738 26.3467 21.9712 27.5529 21.4529 26.7736ZM20.1572 25.9018C20.2104 25.1418 20.4538 26.4229 20.1572 25.9018V25.9018ZM20.74 26.0976C21.0182 25.524 21.2116 26.8972 20.74 26.0976V26.0976ZM19.3378 25.0386C18.8553 24.5705 18.5063 24.1392 19.3605 24.7482C19.6897 24.7607 18.6291 23.767 19.4396 24.4326C20.292 24.5843 19.8604 25.7968 19.3378 25.0386ZM20.0743 25.0199C20.2231 25.2867 20.3546 24.7488 20.0743 25.0199V25.0199ZM20.5276 25.1617C20.1027 24.3843 21.043 25.4876 20.5276 25.1617V25.1617ZM19.6266 24.321C18.2242 23.1025 21.389 24.9583 19.8557 24.5469L19.6266 24.321ZM23.6451 26.6007C23.0381 26.2454 23.4843 24.0993 23.6912 25.5671C24.2812 25.3807 23.6586 26.325 24.0987 26.3163C24.0293 26.9121 23.8324 27.1263 23.645 26.6007H23.6451ZM25.1314 27.4584C25.1909 26.8116 25.2566 27.9004 25.1314 27.4584V27.4584ZM24.8732 27.2093C24.8801 27.5345 24.9401 26.933 24.8732 27.2093V27.2093ZM19.9018 23.9207C19.0008 22.707 22.5203 25.1484 20.4788 24.2285C20.2655 24.1741 20.0088 24.1548 19.9018 23.9207ZM22.7639 25.4023C22.6786 24.3802 22.9543 25.5717 22.7639 25.4023V25.4023ZM24.937 26.7633C24.9495 27.1483 25.1051 26.1811 24.937 26.7633V26.7633ZM20.0398 23.4573C20.5753 23.3457 22.2591 24.3756 20.7128 23.7518C20.5409 23.5659 20.1747 23.6505 20.0398 23.4573ZM24.6383 25.6953C24.6955 24.6503 24.9579 25.0712 24.6402 25.8449L24.6383 25.6953ZM20.4383 23.0939C20.6564 22.7815 19.859 21.6811 20.5532 22.6992C20.8532 22.932 21.4216 23.089 20.9197 23.1869C21.7092 23.8669 20.7272 23.3712 20.4383 23.0939ZM24.4109 25.3688C24.5439 26.0663 24.5617 24.1785 24.4109 25.3688V25.3688ZM19.9827 21.9943C20.0708 22.2112 20.1494 21.9246 19.9827 21.9943V21.9943ZM21.019 22.5965C21.2856 22.0502 21.5108 23.2057 21.019 22.5965V22.5965ZM23.9417 24.1839C23.939 23.9741 23.9969 24.4892 23.9417 24.1839V24.1839ZM23.7724 23.818C23.3667 22.8408 24.1498 24.3354 23.7724 23.818V23.818ZM23.5234 23.1774C23.4552 22.7736 23.7548 23.6847 23.5234 23.1774V23.1774ZM23.9288 22.5339C23.6503 22.055 24.2804 20.4233 24.3506 21.4351C24.0567 22.2237 24.2658 22.6649 24.4707 21.6072C24.8494 20.7748 24.389 23.2497 23.9288 22.5339ZM24.3454 20.1072C24.3723 20.2826 24.4667 19.9618 24.3454 20.1072V20.1072ZM23.6497 33.4918C23.4846 33.3512 23.6704 33.5812 23.6497 33.4918V33.4918ZM25.0828 34.1995C25.88 34.3993 25.8759 34.0784 25.1554 33.9832C24.7678 33.6311 23.5451 33.2577 24.6397 33.9395C24.7121 34.1188 24.9412 34.1146 25.0828 34.1995ZM22.2523 32.364C22.6916 32.6838 23.9066 33.2703 22.8779 32.4859C23.2248 32.0923 22.2142 31.8829 22.5494 31.6198C21.6967 31.1103 21.8767 31.1556 22.4741 31.1717C21.4492 30.7244 22.622 30.7578 22.5669 30.5287C22.1717 30.4526 20.6042 29.8484 21.5264 30.5783C20.5889 30.1117 21.3029 30.7521 21.0196 30.6844C20.0609 30.4293 21.8733 31.3973 20.8672 31.157C21.4173 31.5826 22.3478 32.247 21.0999 31.6073C20.9355 31.8385 21.9928 32.1885 22.2523 32.364ZM23.7512 33.2047C22.8576 32.5042 25.574 33.7782 23.7512 33.2047V33.2047ZM31.4245 37.7433C31.1755 38.0444 31.4481 37.3902 31.4245 37.7433V37.7433ZM32.2132 38.0674C32.6337 37.6695 32.2304 38.701 32.91 37.97C32.9173 37.4466 32.8889 37.1375 32.129 37.7732C31.9195 37.8866 31.8258 38.369 32.2132 38.0674ZM19.6941 30.3911C18.7888 29.8979 19.5648 29.8956 19.6941 30.3911V30.3911ZM20.5362 30.9298C19.4205 30.4716 20.2234 30.4236 20.5362 30.9298V30.9298ZM25.3272 33.7508C25.7949 34.1564 27.4756 34.0485 25.8952 33.8008C25.6612 33.4629 24.4091 33.5443 25.3272 33.7508ZM31.9132 37.7221C31.2158 37.9852 32.6332 37.1323 31.9132 37.7221V37.7221ZM33.4105 38.7267C33.1002 38.8095 33.415 38.5373 33.4105 38.7267V38.7267ZM33.4127 38.4616C32.6403 38.5104 34.21 37.6369 33.4127 38.4616V38.4616ZM17.6228 28.6981C16.9433 27.7514 17.2004 27.326 16.5452 26.5532C16.4212 25.9621 15.4211 24.6209 16.0279 26.0418C16.5838 26.8728 16.7489 28.1594 17.6228 28.6981ZM33.1628 38.1996C32.5609 37.7963 34.6297 37.274 33.1628 38.1996V38.1996ZM34.2824 38.6277C33.818 38.499 35.0171 38.012 34.2824 38.6277V38.6277ZM19.4445 29.3447C18.9017 29.3058 19.6547 29.0395 19.4445 29.3447V29.3447ZM34.0488 38.3353C34.7599 37.8877 33.885 37.9564 33.9198 38.3765L34.0488 38.3353ZM24.3974 32.3959C24.0219 32.4217 24.3731 32.0937 24.3974 32.3959V32.3959ZM24.9939 32.7311C24.7025 32.7899 24.8043 32.357 24.9939 32.7311V32.7311ZM35.1898 38.6379C36.101 37.9961 34.6376 38.515 34.9986 38.7595L35.1898 38.6379ZM34.8411 38.4732C34.0574 38.7424 35.5832 37.866 34.8411 38.4732V38.4732ZM36.6234 39.6322C36.0181 39.5267 37.1219 39.3063 36.6234 39.6322V39.6322ZM19.9013 29.1246C20.5694 29.2708 22.5706 30.7308 21.39 29.2257C20.7851 29.0509 21.1479 27.6075 20.5312 27.8631C20.9452 28.5383 20.8717 28.8257 20.0025 28.4C18.91 27.8794 19.3885 28.658 19.6019 28.8726C19.3112 28.9372 19.9869 29.1193 19.9013 29.1246ZM16.8582 26.778C16.9777 26.2951 15.7571 24.1212 16.2817 25.6887C16.4711 26.0171 16.452 26.6393 16.8582 26.778ZM22.4438 30.1402C22.0998 29.8593 22.4276 30.1004 22.4438 30.1402V30.1402ZM23.2908 30.3326C22.3546 30.1248 23.2903 29.8211 23.2908 30.3326V30.3326ZM30.6307 34.8504C30.0774 34.8422 30.4908 34.5008 30.6307 34.8504V34.8504ZM30.9833 35.1017C30.7799 35.1395 30.9314 34.9061 30.9833 35.1017V35.1017ZM33.8926 36.8908C33.5434 36.865 34.1725 36.6891 33.8926 36.8908V36.8908ZM18.3782 27.157C17.5208 26.9412 19.1785 26.8545 18.3782 27.157V27.157ZM29.9846 34.2962C29.4745 34.4216 29.9757 33.7902 29.9846 34.2962V34.2962ZM18.062 26.4376C17.5865 26.326 18.5761 26.268 18.062 26.4376V26.4376ZM19.5543 27.1433C19.3965 27.2063 19.5449 26.977 19.5543 27.1433V27.1433ZM37.7545 38.0402C38.4156 37.9092 39.922 38.3687 40.1656 37.8692C39.3629 37.85 37.388 37.316 37.2946 37.9965L37.4704 38.0234L37.7545 38.0402ZM20.0285 27.26C19.6191 27.241 20.04 26.7474 20.0285 27.26V27.26ZM16.1051 24.6028C15.4274 24.455 15.9269 23.6261 16.1051 24.6028V24.6028ZM17.0408 24.8324C16.1844 24.5503 17.0522 24.5189 17.0408 24.8324V24.8324ZM17.5753 25.0889C17.4208 24.9665 17.4543 25.2431 17.5753 25.0889V25.0889ZM20.9395 27.1958C20.5646 27.0905 21.098 27.0538 20.9395 27.1958V27.1958ZM17.2194 24.5105C16.1356 24.4 17.1289 23.7729 17.2194 24.5105V24.5105ZM15.3011 23.2955C15.1141 23.4237 15.2737 22.9551 15.3011 23.2955V23.2955ZM15.5863 23.0851C15.3414 23.1365 15.5398 22.6813 15.5863 23.0851V23.0851ZM17.1626 24.0039C17.8293 23.7482 15.9486 23.475 17.0264 23.9556L17.1626 24.0039ZM38.2605 36.7273C37.7183 36.6092 38.6871 36.3454 38.2605 36.7273V36.7273ZM40.8093 38.0172C40.3789 38.0821 40.9802 37.5234 40.8093 38.0172V38.0172ZM17.3241 23.1972C16.7955 23.292 17.3942 22.7195 17.3241 23.1972V23.1972ZM15.081 21.7299C14.9605 21.0556 14.9771 19.8719 16.1294 20.272C14.5911 20.5701 17.1941 22.1387 16.8653 20.9002C17.5122 20.9311 18.1308 20.5271 17.7913 21.1404C19.0658 21.003 19.9493 19.924 21.1803 20.0752C22.1392 19.9512 23.1877 19.8573 24.221 19.4805C25.0708 19.4206 25.8886 18.5276 25.4228 17.9982C24.2641 17.9025 23.0514 18.0441 21.7708 18.2927C20.3518 18.5805 19.0626 19.1279 17.6309 19.3627C16.2353 19.5457 17.9115 19.867 17.5119 19.9385C16.7836 20.1854 18.3803 20.3518 17.4174 20.6118C16.8227 20.5014 16.2039 20.3019 16.4578 19.6899C15.1209 19.8594 13.9461 20.401 15.0024 21.7293L15.081 21.7299ZM18.3023 20.1282C18.6158 19.0009 19.9816 21.0559 18.8161 20.2778C18.6769 20.1762 18.448 20.0932 18.3023 20.1282ZM18.3633 19.5815C18.6038 19.7661 18.8158 19.2525 18.3633 19.5815V19.5815ZM18.9377 19.5905C18.9786 19.0717 20.2529 19.8651 19.1479 19.7773L18.9377 19.5905ZM19.7236 19.2819C19.806 19.5733 20.0106 18.9547 19.7236 19.2819V19.2819ZM19.9247 19.1505C20.4024 18.59 22.6305 18.7927 20.9995 19.0959C20.5625 18.7745 20.2276 19.2854 19.9247 19.1505ZM22.8324 18.7129C22.7595 17.1818 24.2768 19.2571 22.8324 18.7129V18.7129ZM23.6573 18.7086C23.9589 17.9369 24.8278 18.3989 23.7968 18.5534C23.8193 18.6356 23.7666 18.9518 23.6573 18.7086ZM16.9986 22.801C16.0419 22.3335 17.9 22.2622 16.9986 22.801V22.801ZM17.6652 22.9818C16.9784 22.8488 17.9811 22.6538 17.6652 22.9818V22.9818ZM15.7015 21.6211C15.092 21.4742 16.2163 21.2348 15.7015 21.6211V21.6211ZM42.3137 37.8758C41.9201 38.0778 42.3286 37.4277 42.3137 37.8758V37.8758ZM39.6095 36.074C39.262 36.1191 39.6864 35.5581 39.6095 36.074V36.074ZM43.0572 38.0497C43.7773 38.052 45.2389 37.8312 43.6722 37.832C43.4265 37.8695 42.2398 37.8614 43.0572 38.0497ZM18.2512 22.6656C18.8339 22.6265 19.163 22.038 18.1385 22.0719C16.5509 21.9113 19.5392 22.6026 17.9349 22.4049C17.7192 22.5442 18.2389 22.7041 18.2512 22.6656ZM18.7643 22.9191C18.5843 23.1132 18.7035 22.5539 18.7643 22.9191V22.9191ZM19.3731 21.3342C19.0233 21.2524 19.6261 21.028 19.3731 21.3342V21.3342ZM17.4352 18.1715C18.4752 17.8261 19.8974 17.438 20.3883 18.3416C19.8887 17.7543 20.1867 17.1763 20.6586 18.0349C21.3261 18.9037 21.6602 17.6397 21.2262 17.3484C21.7208 17.9485 22.2836 18.232 21.5574 17.3864C22.3465 16.4597 19.9774 17.5077 19.439 17.4972C19.1798 17.6106 16.7642 18.0986 17.4352 18.1717V18.1715ZM18.0448 17.0319C18.6379 16.5949 20.0959 17.2919 19.1604 16.5976C19.0687 16.5187 17.1114 17.124 18.0448 17.0319ZM20.207 17.119C20.9011 17.1364 19.9076 16.2085 20.7347 16.6291C20.599 16.1957 19.7717 16.1145 19.3673 15.9414C19.1386 16.3376 19.8329 17.1243 20.207 17.1191V17.119ZM18.4238 15.2028C18.003 15.364 18.664 14.885 18.4238 15.2028V15.2028ZM19.3076 15.4094C20.4263 15.2646 19.0225 14.9392 19.0822 15.3977L19.3076 15.4094ZM17.6575 14.1486C16.8699 13.1448 19.1388 14.3173 18.3385 13.2663C17.665 12.7427 17.0178 13.8556 17.6574 14.1486H17.6575ZM27.7655 19.4642C28.1267 18.8389 26.2741 18.6214 27.5221 19.2425C27.6369 19.2802 27.6111 19.5074 27.7655 19.4642Z" fill="white"/>
</svg>
