<svg width="56" height="56" viewBox="0 0 56 56" fill="none" xmlns="http://www.w3.org/2000/svg">
<path d="M39.5556 12.4444H16.4445C14.2353 12.4444 12.4445 14.2353 12.4445 16.4444V39.5556C12.4445 41.7647 14.2353 43.5556 16.4445 43.5556H39.5556C41.7647 43.5556 43.5556 41.7647 43.5556 39.5556V16.4444C43.5556 14.2353 41.7647 12.4444 39.5556 12.4444Z" fill="#F7DF1E"/>
<g filter="url(#filter0_d_1_6140)">
<path d="M33.3432 36.7501C33.9699 37.7733 34.7852 38.5254 36.2272 38.5254C37.4385 38.5254 38.2123 37.92 38.2123 37.0835C38.2123 36.081 37.4173 35.7259 36.0839 35.1427L35.3531 34.8291C33.2435 33.9304 31.842 32.8044 31.842 30.4242C31.842 28.2316 33.5126 26.5625 36.1235 26.5625C37.9822 26.5625 39.3185 27.2094 40.2815 28.9032L38.0049 30.3649C37.5037 29.4662 36.963 29.1121 36.1235 29.1121C35.2672 29.1121 34.7244 29.6553 34.7244 30.3649C34.7244 31.242 35.2677 31.597 36.522 32.1402L37.2528 32.4533C39.7368 33.5185 41.1393 34.6044 41.1393 37.0459C41.1393 39.678 39.0716 41.12 36.2948 41.12C33.5798 41.12 31.8257 39.8262 30.9674 38.1304L33.3432 36.7501ZM23.0158 37.0035C23.4751 37.8183 23.8928 38.5072 24.8973 38.5072C25.8578 38.5072 26.4637 38.1314 26.4637 36.6701V26.7294H29.3872V36.7096C29.3872 39.7368 27.6123 41.1146 25.0217 41.1146C22.681 41.1146 21.3254 39.9032 20.636 38.4442L23.0158 37.0035Z" fill="black"/>
</g>
<defs>
<filter id="filter0_d_1_6140" x="19.636" y="26.5625" width="22.5032" height="16.5575" filterUnits="userSpaceOnUse" color-interpolation-filters="sRGB">
<feFlood flood-opacity="0" result="BackgroundImageFix"/>
<feColorMatrix in="SourceAlpha" type="matrix" values="0 0 0 0 0 0 0 0 0 0 0 0 0 0 0 0 0 0 127 0" result="hardAlpha"/>
<feOffset dy="1"/>
<feGaussianBlur stdDeviation="0.5"/>
<feComposite in2="hardAlpha" operator="out"/>
<feColorMatrix type="matrix" values="0 0 0 0 0 0 0 0 0 0 0 0 0 0 0 0 0 0 0.5 0"/>
<feBlend mode="normal" in2="BackgroundImageFix" result="effect1_dropShadow_1_6140"/>
<feBlend mode="normal" in="SourceGraphic" in2="effect1_dropShadow_1_6140" result="shape"/>
</filter>
</defs>
</svg>
