<svg width="56" height="56" viewBox="0 0 56 56" fill="none" xmlns="http://www.w3.org/2000/svg">
<path d="M19.5181 15.8114C19.1584 15.8114 18.9046 15.8546 18.6507 15.9189V15.9618H18.693C18.8624 16.3055 19.1584 16.5418 19.3699 16.8424C19.5394 17.186 19.6874 17.5298 19.8568 17.8735C19.8778 17.8519 19.899 17.8306 19.899 17.8306C20.1954 17.6156 20.3434 17.2721 20.3434 16.7565C20.2164 16.6063 20.1953 16.4559 20.0894 16.3055C19.9626 16.0906 19.6874 15.9833 19.5181 15.8114Z" fill="#00A391"/>
<path d="M40.6566 34.9762C38.9639 34.9333 37.6519 35.1052 36.5517 35.5777C36.2342 35.7064 35.7263 35.7065 35.684 36.1147C35.8533 36.2865 35.8745 36.5658 36.0226 36.8019C36.2768 37.2314 36.7208 37.8114 37.1229 38.1123C37.5672 38.4559 38.0117 38.7994 38.477 39.1002C39.3023 39.6157 40.2335 39.9163 41.0375 40.4319C41.5032 40.7323 41.9684 41.1192 42.4339 41.4413C42.6667 41.6129 42.8147 41.8924 43.1111 41.9997V41.9354C42.9629 41.7419 42.9205 41.4628 42.7725 41.248C42.5611 41.0332 42.3493 40.8399 42.1377 40.6251C41.5241 39.7875 40.7624 39.0572 39.9372 38.4558C39.2601 37.9833 37.7788 37.339 37.5038 36.5442C37.5038 36.5442 37.4825 36.5228 37.4615 36.5013C37.9269 36.4584 38.477 36.2865 38.9215 36.1576C39.6409 35.9642 40.2968 36.0073 41.0375 35.8139C41.376 35.728 41.7145 35.6206 42.053 35.5132V35.32C41.6723 34.9333 41.3972 34.4179 40.9952 34.0527C39.916 33.1075 38.731 32.184 37.5038 31.4108C36.8478 30.9812 36.0013 30.702 35.3031 30.3369C35.0494 30.2079 34.626 30.1436 34.478 29.9288C34.097 29.4563 33.8854 28.8335 33.6104 28.275C32.9969 27.0935 32.4043 25.7834 31.8752 24.5378C31.4946 23.7 31.2618 22.8623 30.7962 22.0892C28.6168 18.4378 26.2469 16.2255 22.6075 14.0561C21.8245 13.6051 20.8935 13.4118 19.8991 13.1756C19.3703 13.154 18.8411 13.1112 18.3122 13.0896C17.9736 12.9392 17.635 12.5312 17.3387 12.3379C16.1329 11.5645 13.0222 9.8894 12.1335 12.1017C11.5621 13.4977 12.98 14.8722 13.4665 15.5812C13.8264 16.0752 14.2918 16.6336 14.5457 17.1921C14.6938 17.557 14.736 17.9439 14.8842 18.3304C15.2229 19.2752 15.5401 20.3279 15.9846 21.2086C16.2174 21.6596 16.4712 22.1321 16.7675 22.5402C16.9368 22.7764 17.2329 22.8839 17.2965 23.2704C17.0004 23.7 16.9791 24.3445 16.8097 24.8814C16.048 27.3085 16.3443 30.3154 17.4234 32.0981C17.7618 32.6349 18.566 33.8166 19.6451 33.3654C20.5974 32.9788 20.3858 31.7545 20.6606 30.6806C20.7244 30.4226 20.6821 30.251 20.8089 30.0791V30.1222C21.1052 30.7234 21.4013 31.3036 21.6764 31.9049C22.3324 32.9572 23.4749 34.0527 24.4271 34.7831C24.9351 35.1695 25.3371 35.8354 25.9719 36.0717V36.0071H25.9295C25.8025 35.8138 25.612 35.728 25.4429 35.5775C25.0621 35.1911 24.6387 34.7185 24.3426 34.2889C23.454 33.086 22.6709 31.7544 21.9727 30.3798C21.6342 29.7141 21.3378 28.9837 21.0628 28.318C20.9358 28.0599 20.9358 27.6735 20.7243 27.5448C20.4068 28.0172 19.9414 28.4254 19.7086 29.0052C19.3068 29.9288 19.2643 31.0671 19.1162 32.2484C19.0315 32.2701 19.0737 32.2484 19.0314 32.2916C18.3545 32.1195 18.1217 31.4108 17.8676 30.8094C17.2328 29.2845 17.127 26.8359 17.6773 25.0747C17.8254 24.6236 18.4603 23.2061 18.2064 22.7765C18.0794 22.3683 17.656 22.1321 17.4234 21.81C17.1484 21.4018 16.852 20.8865 16.6617 20.4353C16.1538 19.2325 15.8998 17.9008 15.3497 16.698C15.0958 16.1395 14.6516 15.5598 14.2918 15.0442C13.8898 14.4643 13.4454 14.0561 13.128 13.3688C13.0223 13.1327 12.874 12.746 13.0433 12.4882C13.0857 12.3164 13.1702 12.2521 13.3396 12.2091C13.6147 11.9727 14.3977 12.2734 14.6726 12.4023C15.4555 12.7243 16.1114 13.0252 16.7675 13.4762C17.0636 13.691 17.381 14.0992 17.7618 14.2066H18.2062C18.8834 14.3568 19.645 14.2495 20.2799 14.4427C21.4014 14.8078 22.417 15.3448 23.3269 15.9248C26.0989 17.7075 28.3839 20.242 29.9287 23.2704C30.1826 23.7642 30.2883 24.2156 30.5211 24.7309C30.9656 25.7834 31.5157 26.8574 31.9599 27.8883C32.4043 28.8977 32.8274 29.9288 33.4623 30.7665C33.7797 31.2174 35.0492 31.4538 35.6205 31.6901C36.0438 31.8833 36.6998 32.0553 37.0806 32.2914C37.8 32.7423 38.5193 33.2581 39.1965 33.7519C39.5351 34.0097 40.593 34.5467 40.6566 34.9762Z" fill="#00A391"/>
</svg>
