<svg id="_layer_2" fill="currentColor" data-name="Layer_2" className="text-gray-100 h-30 w-30" xmlns="http://www.w3.org/2000/svg" viewBox="0 0 151.42 20.05">
  <g id="_layer_1-2"  fillRule="evenodd" data-name="Layer_1">
    <path class="cls-1" d="M40.26,11.48c.51-2.2,2.16-3.16,4.05-3.16s3.75.95,4,3.16h-8.05ZM50.85,18.45l.27-3.03c-4.45,2.44-9.94,2.79-10.78-1.49h11.24v-1.35c-.14-4.61-3.65-6.88-7.27-6.88s-7.32,2.36-7.32,7.15c0,7.26,7.78,8.75,13.86,5.61Z"/>
    <path class="cls-1" d="M23.92,11.48c.51-2.2,2.16-3.16,4.05-3.16s3.75.95,4,3.16h-8.05ZM34.51,18.45l.27-3.03c-4.45,2.44-9.94,2.79-10.78-1.49h11.24v-1.35c-.14-4.61-3.65-6.88-7.27-6.88s-7.32,2.36-7.32,7.15c0,7.26,7.78,8.75,13.86,5.61Z"/>
    <path class="cls-1" d="M57.09.05h-3.11v19.56h3.11v-6.02c1.19,0,2.11,0,3.05.87,1.32,1.35,2.3,3.09,3.19,5.15h3.56c-.86-2.76-3.59-7.07-6.48-7.07v-.41c2.38,0,5.29-3.74,6.08-6.07h-3.27c-.76,1.62-1.76,3.12-3.13,4.34-.92.87-2.03.84-3,.84V.05Z"/>
    <path class="cls-1" d="M72.82,9.02V3.98h4.59c2.46,0,3.4,1.25,3.4,2.52s-.95,2.52-3.4,2.52h-4.59ZM72.82,16.77v-5.04h5.35c2.46,0,3.4,1.25,3.4,2.52s-1,2.52-3.46,2.52h-5.29ZM78.09,1.13h-8.51v18.48h9.32c3.97,0,5.97-2.25,5.97-4.96,0-2.39-1.73-4.09-4.67-4.28v-.43c2.81-.51,3.86-2.28,3.86-4.12,0-2.5-1.94-4.69-5.97-4.69Z"/>
    <path class="cls-1" d="M87.26,6.06v13.55h3.11v-9.1c1.16-1.17,2.67-1.57,5.13-1.57h1.24l-.24-3.12h-1c-2.05,0-4,.89-4.75,2.76h-.38v-2.52h-3.11Z"/>
    <path class="cls-1" d="M100.53,12.84c0-2.98,1.69-4.5,3.95-4.5,1.84,0,3.12.57,4.25,1.73v5.53c-1.14,1.17-2.42,1.73-4.25,1.73-2.26,0-3.95-1.52-3.95-4.5ZM108.74,6.06v1.98h-.35c-1.22-1.6-2.63-2.41-4.71-2.41-4.24,0-6.36,3.44-6.36,7.21s2.12,7.21,6.36,7.21c2.08,0,3.5-.81,4.71-2.41h.35v1.98h3.11V6.06h-3.11Z"/>
    <path class="cls-1" d="M115.58,19.61h3.11V6.06h-3.11v13.55ZM117.15,4.33c1.29,0,2.16-.87,2.16-2.17s-.87-2.17-2.16-2.17-2.16.87-2.16,2.17c0,1.3.86,2.17,2.16,2.17Z"/>
    <path class="cls-1" d="M125.54,6.06h-3.11v13.55h3.11v-9.54c1.14-1.11,2.39-1.73,3.9-1.73,1.65,0,3.2.92,3.2,3.69v7.59h3.11v-8.29c0-3.5-1.63-5.69-5.01-5.69-1.83,0-3.68.79-4.9,2.52h-.3v-2.09Z"/>
    <path class="cls-1" d="M138.35,10c0,2.41,2.24,3.36,3.97,3.74l3.97.84c1.29.27,1.89.65,1.89,1.3,0,.98-1.35,1.44-3.32,1.44-2.32,0-5-.89-6.48-1.71l.27,3.06c1.73.89,3.97,1.38,6.05,1.38,3.86,0,6.73-1.27,6.73-4.31,0-2.46-2.05-3.39-4.46-3.9l-3.62-.76c-1.13-.24-1.76-.62-1.76-1.27,0-.92,1.22-1.41,3.16-1.41,2.19,0,4.54.81,5.78,1.49l-.27-3.06c-1.49-.76-3.4-1.19-5.35-1.19-3.53,0-6.56,1.24-6.56,4.36Z"/>
    <path class="cls-1" d="M9.34,9.41v2.97h5.76v3.33c-1.55.9-3.16,1.31-4.69,1.31-3.65,0-6.97-2.38-6.97-6.62s3.33-6.62,6.97-6.62c2.34,0,4.84.95,7.1,2.86l-.33-3.78c-2.19-1.44-4.59-2.12-7.13-2.12C4.97.75,0,4.17,0,10.4s4.97,9.65,10.05,9.65c2.54,0,5.19-.57,8.18-2.79v-7.85h-8.89Z"/>
  </g>
</svg>