<svg width="58" height="58" viewBox="0 0 58 58" fill="none" xmlns="http://www.w3.org/2000/svg">
<path d="M12 17C12 14.7909 13.7909 13 16 13H40.2222C42.4314 13 44.2222 14.7909 44.2222 17V41.2222C44.2222 43.4314 42.4314 45.2222 40.2222 45.2222H16C13.7909 45.2222 12 43.4314 12 41.2222V17Z" fill="#3178C6"/>
<g filter="url(#filter0_d_1_5370)">
<path d="M28.4938 28.1896H29.9861V30.766H25.9514V42.2285L25.8445 42.2576C25.6986 42.2965 23.7785 42.2965 23.3653 42.2528L23.0347 42.2236V30.766H19V28.1896L20.2785 28.175C20.9785 28.1653 22.7771 28.1653 24.2743 28.175C25.7715 28.1847 27.6674 28.1896 28.4938 28.1896ZM39.8834 41.0132C39.2903 41.6403 38.6535 41.9903 37.5938 42.2771C37.132 42.4035 37.0542 42.4083 36.0139 42.4035C34.9736 42.3986 34.891 42.3986 34.3854 42.2674C33.0778 41.9319 32.0229 41.2757 31.3035 40.3472C31.0993 40.0847 30.7639 39.5403 30.7639 39.4722C30.7639 39.4528 30.8125 39.409 30.8757 39.3799C30.9389 39.3507 31.0702 39.2681 31.1771 39.2049C31.284 39.1417 31.4785 39.025 31.6097 38.9569C31.741 38.8889 32.1202 38.6653 32.4507 38.466C32.7813 38.2667 33.0827 38.1062 33.1167 38.1062C33.1507 38.1062 33.2139 38.1743 33.2625 38.2569C33.5542 38.7479 34.2347 39.375 34.716 39.5889C35.0125 39.7153 35.6688 39.8562 35.9848 39.8562C36.2764 39.8562 36.8111 39.7299 37.0979 39.5986C37.4042 39.4576 37.5598 39.3167 37.7445 39.0347C37.8709 38.8354 37.8854 38.7819 37.8806 38.4028C37.8806 38.0528 37.8611 37.9556 37.7639 37.7951C37.4917 37.3479 37.1223 37.1146 35.625 36.4535C34.0792 35.7681 33.3841 35.3597 32.8202 34.8104C32.4021 34.4021 32.3195 34.2903 32.057 33.7799C31.7167 33.1236 31.6729 32.9097 31.6681 31.9326C31.6632 31.2472 31.6778 31.0236 31.7507 30.7903C31.8528 30.4403 32.1834 29.7646 32.3341 29.5944C32.6452 29.2299 32.757 29.1181 32.9757 28.9382C33.6368 28.3937 34.6674 28.034 35.6542 28C35.766 28 36.1354 28.0194 36.4806 28.0437C37.4723 28.1264 38.1479 28.3694 38.7993 28.8896C39.2903 29.2785 40.0341 30.1924 39.9611 30.3139C39.9125 30.3868 37.9729 31.6799 37.8466 31.7187C37.7688 31.7431 37.7153 31.7139 37.6084 31.5875C36.9473 30.7951 36.6799 30.625 36.0382 30.5861C35.5813 30.5569 35.3382 30.6104 35.032 30.8146C34.7111 31.0285 34.5556 31.3542 34.5556 31.8062C34.5604 32.4674 34.8132 32.7785 35.7466 33.2403C36.3493 33.5368 36.8646 33.7799 36.9035 33.7799C36.9618 33.7799 38.2111 34.4021 38.5368 34.5965C40.0535 35.4861 40.6709 36.4 40.8313 37.975C40.948 39.1611 40.6125 40.2451 39.8834 41.0132Z" fill="white"/>
</g>
<defs>
<filter id="filter0_d_1_5370" x="18" y="28" width="23.854" height="16.4046" filterUnits="userSpaceOnUse" color-interpolation-filters="sRGB">
<feFlood flood-opacity="0" result="BackgroundImageFix"/>
<feColorMatrix in="SourceAlpha" type="matrix" values="0 0 0 0 0 0 0 0 0 0 0 0 0 0 0 0 0 0 127 0" result="hardAlpha"/>
<feOffset dy="1"/>
<feGaussianBlur stdDeviation="0.5"/>
<feComposite in2="hardAlpha" operator="out"/>
<feColorMatrix type="matrix" values="0 0 0 0 0 0 0 0 0 0 0 0 0 0 0 0 0 0 0.5 0"/>
<feBlend mode="normal" in2="BackgroundImageFix" result="effect1_dropShadow_1_5370"/>
<feBlend mode="normal" in="SourceGraphic" in2="effect1_dropShadow_1_5370" result="shape"/>
</filter>
</defs>
</svg>
